<?xml version="1.0" standalone="no"?>
<!DOCTYPE svg PUBLIC "-//W3C//DTD SVG 20010904//EN"
 "http://www.w3.org/TR/2001/REC-SVG-20010904/DTD/svg10.dtd">
<svg version="1.0" xmlns="http://www.w3.org/2000/svg"
 width="300.000000pt" height="300.000000pt" viewBox="0 0 300.000000 300.000000"
 preserveAspectRatio="xMidYMid meet">
<metadata>
Created by potrace 1.11, written by Peter Selinger 2001-2013
</metadata>
<g transform="translate(0.000000,300.000000) scale(0.100000,-0.100000)"
fill="#000000" stroke="none">
<path d="M2226 2818 c-10 -5 -24 -11 -32 -12 -13 -2 -43 -32 -139 -137 -66
-73 -90 -102 -92 -112 -1 -5 -22 -24 -47 -43 -26 -19 -46 -40 -46 -47 0 -11
-26 -31 -99 -79 -14 -9 -34 -17 -43 -17 -9 -1 -21 -8 -26 -17 -5 -9 -13 -16
-18 -16 -19 -1 -34 -10 -28 -19 3 -5 -2 -6 -10 -3 -9 3 -16 1 -16 -6 0 -6 -4
-9 -9 -5 -5 3 -12 1 -15 -4 -3 -5 -22 -12 -41 -15 -19 -4 -35 -11 -35 -16 0
-6 -3 -9 -7 -9 -20 3 -34 -2 -28 -11 3 -5 0 -7 -9 -4 -8 3 -21 2 -28 -2 -18
-12 -39 -14 -33 -4 12 19 -74 -5 -87 -24 -5 -7 -8 -7 -8 2 0 7 -4 10 -10 7 -5
-3 -20 -8 -32 -10 -12 -3 -25 -10 -30 -17 -6 -10 -8 -10 -8 1 0 10 -3 11 -13
3 -7 -6 -29 -9 -50 -7 -26 2 -35 0 -30 -8 3 -7 -3 -4 -14 6 -23 20 -38 23 -27
5 6 -9 3 -9 -9 1 -10 8 -24 10 -34 5 -24 -10 -30 -11 -54 -13 -11 0 -18 -5
-15 -9 2 -4 -4 -8 -14 -9 -11 -1 -22 3 -25 8 -4 5 -11 7 -16 3 -5 -3 -17 0
-26 8 -14 11 -16 11 -8 -2 5 -9 0 -8 -13 4 -12 11 -22 16 -22 13 0 -6 -134 59
-155 75 -45 35 -115 76 -115 68 0 -5 -9 -1 -21 11 -14 14 -29 19 -45 16 -13
-2 -21 -1 -19 3 2 4 -9 7 -25 7 -16 0 -27 -3 -25 -7 2 -4 -2 -7 -10 -7 -8 0
-12 4 -10 7 3 4 -7 8 -20 8 -14 0 -25 -5 -25 -10 0 -6 -6 -8 -14 -5 -8 3 -20
-1 -27 -9 -6 -8 -14 -12 -17 -10 -9 9 -73 -84 -76 -109 -2 -14 -5 -27 -8 -30
-3 -3 -1 -26 3 -51 5 -26 6 -50 3 -56 -3 -5 2 -20 11 -35 9 -14 12 -22 5 -18
-9 6 -9 1 1 -16 7 -13 14 -37 15 -54 5 -48 7 -55 15 -55 4 0 7 -12 5 -27 -1
-16 2 -34 7 -40 6 -9 5 -13 -2 -13 -7 0 -9 -5 -4 -12 4 -7 6 -21 5 -30 -2 -10
1 -18 6 -18 4 0 8 -15 7 -32 0 -18 4 -39 9 -47 8 -11 8 -13 -1 -7 -7 4 -13 2
-13 -3 0 -6 4 -11 9 -11 5 0 7 -13 6 -30 -1 -16 1 -30 6 -30 5 0 9 -11 9 -25
0 -14 5 -25 10 -25 6 0 10 -8 10 -19 0 -22 25 -73 32 -66 9 10 1 -61 -10 -81
-6 -12 -9 -24 -6 -27 3 -3 1 -15 -6 -26 -6 -12 -7 -21 -2 -21 4 0 8 -15 7 -32
-1 -18 6 -42 14 -52 12 -15 12 -17 2 -11 -10 6 -12 4 -5 -6 4 -8 10 -22 11
-31 8 -46 12 -61 34 -116 5 -13 9 -32 9 -42 0 -11 5 -20 11 -20 6 0 9 -7 6
-15 -4 -8 -2 -17 3 -20 6 -4 8 -20 5 -36 -4 -23 -2 -29 7 -23 10 6 10 4 0 -8
-9 -11 -10 -18 -2 -23 6 -4 7 -13 2 -23 -14 -27 -8 -117 7 -114 7 1 10 -2 6
-8 -9 -14 17 -80 29 -73 5 4 7 0 3 -9 -3 -10 9 -32 34 -60 21 -23 39 -39 39
-33 0 5 7 0 15 -11 8 -12 28 -27 45 -34 16 -7 30 -16 30 -21 0 -5 6 -9 13 -9
6 0 25 -11 41 -25 16 -13 33 -22 39 -18 5 3 7 1 4 -4 -6 -9 18 -27 26 -20 2 1
15 -6 31 -16 15 -10 30 -16 33 -13 3 3 15 0 27 -6 11 -7 24 -13 29 -14 4 -1 8
-2 10 -4 14 -12 100 -18 119 -9 10 6 19 5 23 -1 4 -6 11 -7 18 -3 6 3 31 8 56
9 25 2 62 6 81 9 19 4 78 8 130 10 52 3 109 6 127 8 17 2 30 -1 27 -5 -3 -4 5
-6 18 -4 13 2 31 -1 42 -6 14 -8 17 -7 11 3 -6 8 -4 10 6 3 19 -11 39 -14 39
-5 0 4 19 8 43 9 111 4 180 12 193 23 8 6 14 9 14 5 0 -3 24 5 54 18 30 13 57
22 60 18 3 -3 6 0 6 7 0 7 4 10 9 6 5 -3 12 -1 16 5 3 5 15 10 26 10 11 0 18
4 15 9 -4 5 4 7 16 3 12 -3 19 -1 15 5 -3 5 8 8 29 7 24 -2 37 2 41 12 4 12 8
12 13 4 6 -9 13 -7 26 6 11 11 26 19 34 19 8 0 14 6 12 13 -1 8 2 11 7 8 13
-8 107 43 103 56 -1 5 2 7 8 3 5 -3 10 -1 10 6 0 7 3 9 6 6 8 -7 94 52 94 65
0 4 7 8 15 8 8 0 15 5 15 10 0 6 17 26 38 45 20 20 38 40 38 45 1 6 2 11 4 13
3 4 12 41 13 59 1 9 5 14 9 12 4 -3 8 0 8 5 0 6 -6 11 -12 11 -9 0 -8 4 2 10
8 5 11 10 6 10 -5 0 -3 7 4 15 10 12 10 15 -1 15 -9 0 -10 3 -4 8 10 7 15 363
5 357 -3 -2 -5 12 -4 31 1 19 -2 37 -8 40 -5 3 -5 11 2 19 8 9 8 15 0 20 -5 3
-10 17 -10 31 0 13 -5 24 -11 24 -5 0 -7 5 -4 10 3 6 0 10 -7 10 -9 0 -10 3
-2 8 14 9 9 42 -8 53 -9 6 -10 9 -1 9 7 0 10 7 7 15 -4 8 -11 12 -17 8 -6 -4
-7 -1 -2 6 8 13 -5 45 -38 93 -10 16 -20 40 -23 54 -3 14 -16 38 -29 52 -21
23 -58 86 -60 102 0 3 -4 12 -10 20 -5 8 -10 26 -11 39 -2 14 -8 27 -14 29 -5
2 -10 10 -10 18 0 8 -5 14 -11 14 -5 0 -7 5 -4 10 3 6 3 16 -2 23 -4 6 -8 14
-9 17 -1 3 -5 20 -9 37 -4 18 -11 31 -15 28 -4 -2 -5 7 -2 22 4 20 2 24 -9 18
-11 -7 -12 -6 -3 6 5 8 9 34 8 59 -1 25 3 50 8 57 5 7 7 17 4 22 -4 5 -2 12 4
16 5 3 10 11 10 16 0 6 -6 7 -12 3 -10 -6 -10 -4 -2 7 5 8 9 28 9 44 -1 17 2
38 7 48 6 12 5 17 -4 17 -10 0 -10 2 0 9 15 9 15 20 0 38 -5 7 -6 18 -2 25 11
17 12 88 2 94 -5 3 -4 12 2 19 8 10 8 19 0 36 -7 12 -7 19 -2 15 21 -13 -1 33
-27 58 -30 29 -71 42 -71 23 0 -9 -2 -9 -8 0 -5 8 -13 8 -26 1z"/>
</g>
</svg>
